<svg xmlns="http://www.w3.org/2000/svg" width="430" height="430" fill="none" viewBox="0 0 430 430"><g stroke-linecap="round" stroke-linejoin="round"><path stroke="#121331" stroke-miterlimit="10" stroke-width="12" d="M352.8 375.2H77.4c-12.4 0-22.4-10-22.4-22.4V77.4C55 65 65 55 77.4 55h275.4c12.4 0 22.4 10 22.4 22.4v275.4c0 12.4-10 22.4-22.4 22.4m20.4-268.8H55"/><path stroke="#158fa8" stroke-miterlimit="10" stroke-width="15" d="M143 80.7h.1m-56.4 0h.1m28 0h.2"/><path stroke="#158fa8" stroke-width="12" d="M86.69 137.626h61.207"/><path stroke="#121331" stroke-width="12" d="M112.497 216.521H227.11m22.123 0h98.96"/><path stroke="#158fa8" stroke-width="12" d="M158.694 242.529h152.461"/><path stroke="#121331" stroke-width="12" d="M135.816 321.02h119.536m-119.536 22.514h91.881m-115.2-72.097H348.19m-52.362 49.583h52.362m-98.621 22.514h98.621m-235.693-47.097h66.678m41.275 0h87.029M133.953 164.496h41.207m43.818 0h41.207m46.355 26.133h41.207"/><path stroke="#158fa8" stroke-width="12" d="M166.942 137.626h.01"/><path stroke="#121331" stroke-width="12" d="M113.349 164.496h.01m84.422 0h.01m87.373 26.133h.01"/><path stroke="#158fa8" stroke-width="12" d="M135.806 242.529h.01m-25.399 0h.01m-23.737 0h.01"/><path stroke="#121331" stroke-width="12" d="M199.757 296.437h.01m128.998 0h.01m18.962 0h.01m-72.632 24.583h.01M113.349 190.629h151.415"/><path stroke="#158fa8" stroke-width="12" d="M188.244 137.626h39.86"/></g></svg>